<?xml version="1.0" ?><svg id="Layer_1_1_" style="enable-background:new 0 0 64 64;" version="1.1" viewBox="0 0 64 64" xml:space="preserve" xmlns="http://www.w3.org/2000/svg" xmlns:xlink="http://www.w3.org/1999/xlink"><g><path d="M60,1H4C2.346,1,1,2.346,1,4v40c0,1.654,1.346,3,3,3h21v6h-7c-2.757,0-5,2.243-5,5v5h38v-5   c0-2.757-2.243-5-5-5h-7v-6h21c1.654,0,3-1.346,3-3V4C63,2.346,61.654,1,60,1z M48.816,57H45v2h4v2H15v-2h28v-2H15.184   c0.414-1.161,1.514-2,2.816-2h28C47.302,55,48.402,55.839,48.816,57z M37,53H27v-6h10V53z M61,44c0,0.552-0.448,1-1,1H4   c-0.552,0-1-0.448-1-1V4c0-0.551,0.448-1,1-1h56c0.552,0,1,0.449,1,1V44z" style="fill:#3F3A34;"/><path d="M5,39h54V5H5V39z M7,7h50v30H7V7z" style="fill:#3F3A34;"/><rect height="2" style="fill:#3F3A34;" width="2" x="57" y="41"/><rect height="2" style="fill:#3F3A34;" width="2" x="53" y="41"/></g></svg>